<svg id="svg" version="1.1" viewBox="0 0 300 201.50788211103497" width="300" height="201.50788211103497" xmlns="http://www.w3.org/2000/svg"><svg xmlns="http://www.w3.org/2000/svg"><defs><clipPath id="clip-1"><rect x="0" y="0" transform="scale(0.14648,0.14644)" width="2048" height="1376" fill="none"/></clipPath><linearGradient x1="122.44761" y1="115.21272" x2="179.25146" y2="66.36346" gradientUnits="userSpaceOnUse" id="color-1"><stop offset="0" stop-color="#541113"/><stop offset="1" stop-color="#ba2629"/></linearGradient></defs><g clip-path="url(#clip-1)" fill="none" fill-rule="nonzero" stroke="none" stroke-width="1" stroke-linecap="butt" stroke-linejoin="miter" stroke-miterlimit="10" stroke-dasharray="" stroke-dashoffset="0" font-family="none" font-weight="none" font-size="none" text-anchor="none" style="mix-blend-mode: normal"><path d="M0,0h300v201.50788h-300z" fill="#ffffff"/><path d="M156.02344,72.42246c4.78564,-4.11041 9.51123,-6.21584 15.95947,-5.74049c5.44775,0.42498 10.50439,2.98791 14.06689,7.12863c2.98535,3.47762 4.94971,8.41413 4.83105,13.02098c0.06006,0.30431 0.09229,0.61331 0.09668,0.92348c0.21533,11.72187 -9.09229,23.6287 -16.85449,31.61126c-2.74951,2.8277 -16.06055,15.55081 -18.7749,15.49326c-1.2085,-0.02563 -2.52246,-0.74423 -3.35596,-1.59171c-0.50391,-0.51256 -0.68994,-1.15106 -0.81152,-1.84081c-0.30469,-1.74518 -0.18311,-3.71267 -0.1875,-5.48889l-0.00293,-8.74363c9.271,-3.12879 6.26221,-13.67559 4.65967,-20.82956c-3.73389,-0.06268 -7.57764,-0.01157 -11.31929,-0.00527c-1.66245,7.16334 -4.50352,17.71776 4.68208,20.84684c0.00146,4.64083 0.07031,9.30539 -0.14355,13.93538c-0.10254,2.22786 -2.45713,3.94873 -4.57222,3.60884c-1.78491,-0.28689 -3.92227,-2.38353 -5.34639,-3.54396c-12.7333,-10.37678 -32.59497,-29.14483 -29.67305,-47.15782c0.8543,-5.43925 3.82603,-10.31981 8.26655,-13.57674c4.57646,-3.22779 10.2438,-4.51606 15.76641,-3.58379c6.24141,1.0629 10.83472,5.47864 15.12363,9.77577c0.58594,0.58768 1.10742,1.29809 1.58643,1.97569c1.62744,-2.41297 3.84814,-4.28526 6.00293,-6.21746z" fill="url(#color-1)"/><path d="M156.02344,72.42246c4.78564,-4.11041 9.51123,-6.21584 15.95947,-5.74049c5.44775,0.42498 10.50439,2.98791 14.06689,7.12863c2.98535,3.47762 4.94971,8.41413 4.83105,13.02098c-0.4248,-0.38222 -0.34277,-3.04678 -0.62256,-4.02738c-0.92725,-3.24697 -2.32764,-7.11677 -5.09326,-9.23026c-0.28418,-0.21776 -0.41162,-0.15377 -0.65625,-0.08318c-0.16113,3.96704 -0.0249,8.29492 -1.6875,12.02984c-0.34277,0.77294 -4.13086,2.44738 -4.93506,3.93965c-0.50244,0.93476 -4.57031,2.41194 -5.74805,2.38983c-0.81592,-0.01523 -2.31006,-0.34371 -3.38086,-0.06312c-1.89404,-1.01428 -3.44092,-0.8649 -5.22803,-2.0656c-0.79395,-0.5335 -1.38721,-1.17815 -2.04053,-1.71208c-2.43896,-1.99282 -2.92236,-3.11239 -4.02979,-5.95342c-0.53613,-1.37687 -0.58447,-1.18225 -0.90088,-2.69531c-0.33984,-1.63681 0.62109,-5.96264 -0.06445,-6.89549z" fill="#ab1f24"/><path d="M153.75439,105.33693c3.97852,-0.13092 2.28223,5.32077 1.21875,7.3152c-1.16602,2.18935 -2.72314,2.86607 -4.94385,3.46664c-1.64502,-0.42132 -2.17822,-0.50758 -3.5458,-1.55964c-2.35356,-2.23899 -2.6436,-4.95906 -2.63379,-8.00803c0.28945,0.2163 0.58594,0.42279 0.88901,0.61931c3.93999,2.54755 5.81353,-1.18298 8.85161,-1.80098z" fill="#ab1f24"/></g></svg></svg>